<?xml version="1.0" encoding="UTF-8"?>
<svg width="216.4" height="198.6" fill="none" version="1.1" viewBox="0 0 216.4 198.6" xmlns="http://www.w3.org/2000/svg" xmlns:cc="http://creativecommons.org/ns#" xmlns:dc="http://purl.org/dc/elements/1.1/" xmlns:rdf="http://www.w3.org/1999/02/22-rdf-syntax-ns#">
 <metadata>
  <rdf:RDF>
   <cc:Work rdf:about="">
    <dc:format>image/svg+xml</dc:format>
    <dc:type rdf:resource="http://purl.org/dc/dcmitype/StillImage"/>
    <dc:title/>
   </cc:Work>
  </rdf:RDF>
 </metadata>
 <g fill="#1c355d">
  <path d="m77.2 92.3v-33.3h-1.8v34.7z"/>
  <path d="m84.9 66.5h-1.8v10.9h1.8z"/>
  <path d="m92.6 80.5v-21.5h-1.8001v22.9z"/>
  <path d="m64.7 61.1 8.9 6.8v-2.3l-8.3-6.4c-0.3-0.3-0.8-0.2-1.1 0l-9.9 8.3v-8.5h-1.8v52.5l1.7-1.3c0.1 0 0.1-0.1 0.2-0.1v-32.8h19.4v-1.8h-19.4v-5.7z"/>
  <path d="m62.4 146.4v-9.4c0-4.3-3.5-7.9-7.9-7.9-4.3 0-7.9 3.5-7.9 7.9v9.4h1.9v-9.4c0-3.3 2.7-6 6-6s6 2.7 6 6v9.4z"/>
  <path d="m91.9 132.7v-22.5c0-6.4-5.5-9.4-7.9-10.4l-0.2-0.1h-0.4l-0.2 0.1c-2.4 0.9998-7.9 4.0998-7.9 10.4v36.2h1.9v-36.2c0-5 4.2001-7.5 6.4001-8.6 2.2 1 6.3999 3.6 6.3999 8.6v22.5z"/>
  <path d="m63.4 93v15.9l1.8-1.4v-14.5z"/>
  <path d="m92.6 42.8h8.2c0-0.2-0.1-0.5-0.1-0.8v-0.1c0-0.3 0-0.7 0.1-1h-8.3v1.9z"/>
  <path d="m102.2 46.2c-0.2-0.3-0.3-0.5-0.5-0.8l-3.3 2.5v2.6l4.5-3.4c-0.2-0.2-0.4-0.4-0.5-0.6-0.1-0.1-0.2-0.2-0.2-0.3z"/>
  <path d="m98.4 35.9 3.4 2.6c0.1-0.3 0.3-0.5 0.5-0.7 0.1-0.1 0.2-0.3 0.3-0.4l0.5-0.5-4.7-3.5z"/>
  <path d="m73.5 127.6-18.3-14c-0.2-0.1-0.4-0.2-0.6-0.2s-0.4 0-0.6 0.2l-20.3 15.5v17.3h1.8v-16.4l19.1-14.5 18.9 14.4z"/>
  <path d="m83.3 47.6-9.1 7v2.6l9.8-7.5 9.7999 7.5v-2.6l-9.1999-7c-0.4-0.3-0.9-0.3-1.3 0z"/>
  <path d="m139.3 59v33.3l1.8 1.4v-34.7z"/>
  <path d="m133.4 66.5h-1.8v10.9h1.8z"/>
  <path d="m123.9 59v21.5l1.8 1.4v-22.9z"/>
  <path d="m113.7 105.1c0-3-2.4-5.3998-5.4-5.3998s-5.4 2.3998-5.4 5.3998 2.4 5.4 5.4 5.4c2.9 0 5.4-2.4 5.4-5.4zm-9.2 0c0-2 1.7-3.7 3.7-3.7s3.7 1.7 3.7 3.7-1.7 3.7-3.7 3.7-3.7-1.7-3.7-3.7z"/>
  <path d="m10.4 150.7h195.6c0.3-0.6 0.5-1.2 0.8-1.8h-197.1c0.2 0.6 0.49995 1.2 0.69995 1.8z"/>
  <path d="m141.1 99.7v-2.3l-32.3-24.7c-0.2-0.1-0.4-0.2-0.6-0.2s-0.4 0-0.6 0.2l-32.3 24.7v2.3l32.8-25z"/>
  <path d="m143 75.6v1.8h19.4v32.8c0.1 0 0.1 0 0.2 0.1l1.7 1.3v-52.5h-1.8v8.5l-9.9-8.3c-0.3-0.3-0.8-0.3-1.1 0l-8.3 6.4v2.3l8.9-6.8 10.5 8.8v5.7h-19.6z"/>
  <path d="m169.8 146.4v-9.4c0-4.3-3.5-7.9-7.9-7.9-4.3 0-7.9 3.5-7.9 7.9v9.4h1.9v-9.4c0-3.3 2.7-6 6-6s6 2.7 6 6v9.4z"/>
  <path d="m116.1 146.4v-11.7c0-4.3-3.5-7.9-7.9-7.9s-7.9 3.5-7.9 7.9v11.6h1.9v-11.6c0-3.3 2.7-6 6-6s6 2.7 6 6v11.6h1.9z"/>
  <path d="m141.1 146.4v-36.2c0-6.4-5.5-9.4-7.9-10.4l-0.2-0.1h-0.4l-0.2 0.1c-2.4 0.9998-7.9 4.0998-7.9 10.4v22.5h1.9v-22.5c0-5 4.2-7.5 6.4-8.6 2.2 1 6.4 3.6 6.4 8.6v36.2z"/>
  <path d="m153.1 108.9v-15.9h-1.8v14.5z"/>
  <path d="m22.6 79.6c-0.2 0.4-0.3 0.9-0.4 1.3-0.1 0.3-0.2 0.7-0.3 1-0.2 0.7-0.4 1.3-0.6 2s-0.4 1.3-0.5 2c-0.1 0.5-0.2 0.9-0.3 1.4-0.2 0.7-0.3 1.3-0.5 2l-0.3 1.5c-0.1 0.7-0.3 1.5-0.4 2.2-0.1 0.4-0.1 0.7-0.2 1.1-0.2 1-0.3 1.9-0.4 2.9 0 0.3-0.1 0.5-0.1 0.8l-0.3 2.7c0 0.2 0 0.4-0.1 0.6-0.1 1-0.1 2.1-0.2 3.1v0.7c0 1.1-0.1 2.2-0.1 3.3s0 2.2 0.1 3.3v0.7c0 1.1 0.1 2.1 0.2 3.1 0 0.2 0 0.4 0.1 0.6l0.3 2.7c0 0.3 0.1 0.5 0.1 0.8 0.1 1 0.3 1.9 0.4 2.9 0.1 0.3 0.1 0.7 0.2 1 0.1 0.8 0.3 1.5 0.4 2.3 0.1 0.5 0.2 0.9 0.3 1.4 0.1 0.7 0.3 1.4 0.5 2.1 0.1 0.5 0.2 0.9 0.3 1.4l0.6 2.1c0.2 0.6 0.4 1.2 0.5 1.9 0.1 0.4 0.2 0.7 0.3 1.1 0.1 0.2 0.2 0.5 0.2 0.7h2c-0.2-0.5-0.4-1.1-0.5-1.6 0-0.1-0.1-0.3-0.1-0.4-0.4-1.2-0.7-2.4-1-3.7 0-0.1-0.1-0.3-0.1-0.4-0.7-2.7-1.3-5.5-1.7-8.3 0-0.3-0.1-0.6-0.1-0.9-0.2-1-0.3-2.1-0.4-3.2 0-0.4-0.1-0.9-0.1-1.3-0.1-1-0.2-2-0.2-3 0-0.4-0.1-0.8-0.1-1.2-0.1-1.4-0.1-2.8-0.1-4.2s0-2.8 0.1-4.2c0-0.4 0-0.8 0.1-1.2 0.1-1 0.1-2 0.2-3 0-0.4 0.1-0.8 0.1-1.3 0.1-1.1 0.3-2.1 0.4-3.2 0-0.3 0.1-0.6 0.1-0.9 0.4-2.8 1-5.6 1.7-8.3 0-0.1 0.1-0.3 0.1-0.4 0.3-1.3 0.7-2.5 1.1-3.7 0-0.1 0.1-0.3 0.1-0.4 6.5-20.6 20.3-38 38.4-49 0.1-0.1 0.2-0.1 0.3-0.2 1-0.6 2.1-1.2 3.1-1.8 0.3-0.1 0.5-0.3 0.8-0.4 0.9-0.5 1.7-0.9 2.6-1.3 0.4-0.2 0.9-0.4 1.3-0.6l2.1-0.9c0.6-0.3 1.2-0.5 1.8-0.8 0.4-0.2 0.8-0.3 1.1-0.4 3.2-1.3 6.4-2.4 9.7-3.3 0.1 0 0.1 0 0.2-0.1 1-0.3 2-0.5 3.1-0.8 0.3-0.1 0.6-0.1 0.9-0.2 0.9-0.2 1.8-0.4 2.8-0.6 0.4-0.1 0.9-0.2 1.3-0.2 0.8-0.1 1.7-0.3 2.5-0.4 0.6-0.1 1.2-0.2 1.8-0.2 0.7-0.1 1.5-0.2 2.2-0.2 0.8-0.1 1.6-0.1 2.4-0.2 0.6 0 1.2-0.1 1.7-0.1 1.4-0.1 2.8-0.1 4.2-0.1s2.8 0 4.2 0.1c0.6 0 1.2 0.1 1.7 0.1 0.8 0.1 1.6 0.1 2.4 0.2 0.7 0.1 1.5 0.2 2.2 0.2 0.6 0.1 1.2 0.1 1.8 0.2 0.8 0.1 1.7 0.2 2.5 0.4 0.4 0.1 0.9 0.2 1.3 0.2 0.9 0.2 1.8 0.4 2.8 0.6 0.3 0.1 0.6 0.1 0.9 0.2 1 0.2 2 0.5 3.1 0.8 0.1 0 0.1 0 0.2 0.1 3.3 0.9 6.5 2 9.7 3.3 0.4 0.2 0.8 0.3 1.1 0.4 0.6 0.3 1.2 0.5 1.8 0.8l2.1 0.9c0.4 0.2 0.9 0.4 1.3 0.6 0.9 0.4 1.8 0.9 2.6 1.3 0.3 0.1 0.5 0.3 0.8 0.4 1.1 0.6 2.1 1.2 3.1 1.8 0.1 0.1 0.2 0.1 0.3 0.2 18.1 11.1 32 28.4 38.4 49 0 0.1 0.1 0.3 0.1 0.4 0.4 1.2 0.7 2.5 1.1 3.7 0 0.1 0.1 0.3 0.1 0.4 0.7 2.7 1.3 5.5 1.7 8.3 0 0.3 0.1 0.6 0.1 0.9 0.2 1.1 0.3 2.1 0.4 3.2 0 0.4 0.1 0.8 0.1 1.3 0.1 1 0.2 2 0.2 3 0 0.4 0.1 0.8 0.1 1.2 0.1 1.4 0.1 2.8 0.1 4.2s0 2.8-0.1 4.2c0 0.4 0 0.8-0.1 1.2-0.1 1-0.1 2-0.2 3 0 0.4-0.1 0.9-0.1 1.3-0.1 1.1-0.3 2.1-0.4 3.2 0 0.3-0.1 0.6-0.1 0.9-0.4 2.8-1 5.5-1.7 8.3 0 0.1-0.1 0.3-0.1 0.4-0.3 1.2-0.7 2.5-1 3.7 0 0.1-0.1 0.3-0.1 0.4-0.2 0.5-0.4 1.1-0.5 1.6h2c0.1-0.2 0.1-0.5 0.2-0.7 0.1-0.4 0.2-0.7 0.3-1.1 0.2-0.6 0.4-1.2 0.5-1.9l0.6-2.1c0.1-0.5 0.2-0.9 0.3-1.4 0.2-0.7 0.3-1.4 0.5-2.1 0.1-0.5 0.2-0.9 0.3-1.4 0.1-0.8 0.3-1.5 0.4-2.3 0.1-0.3 0.1-0.7 0.2-1 0.2-1 0.3-1.9 0.4-2.9 0-0.3 0.1-0.5 0.1-0.8l0.3-2.7c0-0.2 0-0.4 0.1-0.6 0.1-1 0.1-2.1 0.2-3.1v-0.7c0-1.1 0.1-2.2 0.1-3.3s0-2.2-0.1-3.3v-0.7c0-1-0.1-2.1-0.2-3.1 0-0.2 0-0.4-0.1-0.6l-0.3-2.7c0-0.3-0.1-0.5-0.1-0.8-0.1-1-0.3-1.9-0.4-2.9-0.1-0.4-0.1-0.7-0.2-1.1-0.1-0.7-0.3-1.5-0.4-2.2l-0.3-1.5c-0.1-0.7-0.3-1.3-0.5-2-0.1-0.5-0.2-0.9-0.3-1.4-0.2-0.7-0.4-1.3-0.5-2-0.2-0.7-0.4-1.3-0.6-2-0.1-0.3-0.2-0.7-0.3-1-0.1-0.4-0.3-0.9-0.4-1.3-5.3-15.9-15-29.9-27.6-40.5-3.5-2.9-7.2-5.6-11-7.9-0.2-0.1-0.3-0.2-0.5-0.3-0.8-0.5-1.7-1-2.5-1.5-0.5-0.3-1.1-0.6-1.6-0.9-0.4-0.2-0.7-0.4-1.1-0.6-0.9-0.5-1.9-1-2.9-1.4-0.2-0.1-0.3-0.2-0.5-0.2-9.2-4.3-19.3-7.1-29.9-8h-0.2c-1.2-0.1-2.5-0.2-3.7-0.2h-0.4c-1.2 0-2.4-0.1-3.7-0.1s-2.5 0-3.7 0.1h-0.4c-1.2 0.1-2.5 0.1-3.7 0.2h-0.2c-10.6 0.9-20.7 3.7-29.9 8-0.2 0.1-0.3 0.2-0.5 0.2-1 0.5-1.9 0.9-2.9 1.4-0.4 0.2-0.7 0.4-1.1 0.6-0.5 0.3-1.1 0.6-1.6 0.9-0.8 0.5-1.7 1-2.5 1.5-0.2 0.1-0.3 0.2-0.5 0.3-3.9 2.3-7.6 5-11 7.9-12.8 10.6-22.4 24.6-27.8 40.5z"/>
  <path d="m177.6 155.5c-8.9 0-16.2 7.2-16.3 16.1h-2c-0.2-8.9-7.4-16.1-16.3-16.1s-16.2 7.2-16.3 16.1h-2c-0.2-8.9-7.4-16.1-16.3-16.1s-16.2 7.2-16.3 16.1h-2c-0.2-8.9-7.4-16.1-16.3-16.1s-16.2 7.2-16.3 16.1h-2c-0.2-8.9-7.4-16.1-16.3-16.1-8.7 0-15.8 6.9-16.3 15.5 0.6 0.8 1.2 1.6 1.8 2.4v-1.5c0-8 6.5-14.5 14.5-14.5 7.9 0 14.3 6.3 14.5 14.2h-1.7v1.9h1.7v4.1c-1.7-1.3-3.3-2.7-4.8-4.1h-2.8c1.4 1.4 2.9 2.7 4.4 4 3.5 2.9 7.2 5.6 11 7.9 0.2 0.1 0.3 0.2 0.5 0.3 0.8 0.5 1.7 1 2.5 1.5 0.5 0.3 1.1 0.6 1.6 0.9 0.4 0.2 0.7 0.4 1.1 0.6 0.9 0.5 1.9 1 2.9 1.4 0.2 0.1 0.3 0.2 0.5 0.2 9.2 4.3 19.3 7.1 29.9 8h0.2c1.2 0.1 2.5 0.2 3.7 0.2h0.4c1.2 0 2.4 0.1 3.7 0.1s2.5 0 3.7-0.1h0.4c1.2-0.1 2.5-0.1 3.7-0.2h0.2c10.6-0.9 20.7-3.7 29.9-8 0.2-0.1 0.3-0.2 0.5-0.2 1-0.5 1.9-0.9 2.9-1.4 0.4-0.2 0.7-0.4 1.1-0.6 0.5-0.3 1.1-0.6 1.6-0.9 0.8-0.5 1.7-1 2.5-1.5 0.2-0.1 0.3-0.2 0.5-0.3 3.9-2.3 7.5-5 11-7.9 1.5-1.3 3-2.6 4.4-4h-2.8c-1.6 1.4-3.2 2.8-4.8 4.1v-4.1h1.7v-1.9h-1.7c0.2-7.8 6.6-14.2 14.5-14.2 8 0 14.5 6.5 14.5 14.5v1.5c0.6-0.8 1.2-1.6 1.8-2.4-0.7-8.6-7.8-15.5-16.5-15.5zm-120.4 24.9c-0.6-0.5-1.3-0.9-1.9-1.4v-5.6h1.9zm30.9 13.9c-0.9-0.2-1.8-0.4-2.7-0.7-0.1 0-0.1 0-0.2-0.1-3.3-0.9-6.6-2-9.7-3.3-0.4-0.2-0.8-0.3-1.1-0.4-0.6-0.3-1.2-0.5-1.8-0.8l-2.1-0.9c-0.4-0.2-0.9-0.4-1.3-0.6-0.9-0.4-1.7-0.9-2.6-1.3-0.3-0.1-0.5-0.3-0.8-0.4-1.1-0.6-2.1-1.2-3.1-1.8-0.1-0.1-0.2-0.1-0.3-0.2l-3.3-2.1h0.1v-8.2h1.7v-1.9h-1.7c0.2-7.8 6.6-14.2 14.5-14.2s14.3 6.3 14.5 14.2h-1.7v1.9h1.7v20.8zm3.8 0.8c-0.6-0.1-1.3-0.3-1.9-0.4v-21.3h1.9zm30.8 0.4c-0.7 0.1-1.5 0.2-2.2 0.3-0.6 0.1-1.2 0.2-1.8 0.2-0.7 0.1-1.5 0.2-2.2 0.2-0.8 0.1-1.6 0.1-2.4 0.2-0.6 0-1.2 0.1-1.7 0.1-1.4 0.1-2.8 0.1-4.2 0.1s-2.8 0-4.2-0.1c-0.6 0-1.2-0.1-1.7-0.1-0.8-0.1-1.6-0.1-2.4-0.2-0.7-0.1-1.5-0.2-2.2-0.2-0.6-0.1-1.2-0.1-1.8-0.2-0.7-0.1-1.5-0.2-2.2-0.3v-22h1.7v-1.9h-1.7c0.2-7.8 6.6-14.2 14.5-14.2s14.3 6.3 14.5 14.2h-1.7v1.9h1.7zm3.9-0.8c-0.6 0.1-1.3 0.3-1.9 0.4v-21.7h1.9zm27.6-10.9c-0.1 0.1-0.2 0.1-0.3 0.2-1 0.6-2.1 1.2-3.1 1.8-0.3 0.1-0.5 0.3-0.8 0.4-0.9 0.5-1.7 0.9-2.6 1.3-0.4 0.2-0.9 0.4-1.3 0.6l-2.1 0.9c-0.6 0.3-1.2 0.6-1.8 0.8-0.4 0.2-0.8 0.3-1.1 0.4-3.2 1.3-6.4 2.4-9.7 3.3-0.1 0-0.1 0-0.2 0.1-0.9 0.2-1.8 0.5-2.7 0.7v-20.9h1.7v-1.9h-1.7c0.2-7.8 6.6-14.2 14.5-14.2s14.3 6.3 14.5 14.2h-1.7v1.9h1.7v8.2h0.1c-1.2 0.8-2.3 1.5-3.4 2.2zm7-4.8c-0.6 0.5-1.3 0.9-1.9 1.4v-7h1.9z"/>
  <path d="m123.8 41h-8.3c0.1 0.3 0.1 0.7 0.1 1v0.1c0 0.3 0 0.5-0.1 0.8h8.2v-1.9z"/>
  <path d="m108.3 49.3h-0.2-0.1c-0.3 0-0.5 0-0.8-0.1v8.2h2v-8.2c-0.3 0.1-0.5 0.1-0.9 0.1 0.1 0 0.1 0 0 0z"/>
  <path d="m108.1 34.7h0.2c0.3 0 0.6 0 0.8 0.1v-8.4h-2v8.4c0.5-0.1 0.7-0.1 1-0.1z"/>
  <path d="m114.3 46.2c-0.1 0.1-0.1 0.2-0.2 0.3-0.2 0.2-0.3 0.4-0.5 0.6l4.5 3.4v-2.6l-3.3-2.5c-0.2 0.3-0.3 0.6-0.5 0.8z"/>
  <path d="m113.9 37.3c0.1 0.1 0.2 0.2 0.3 0.4 0.2 0.2 0.3 0.5 0.5 0.7l3.4-2.6v-2.6l-4.7 3.5c0.2 0.3 0.3 0.4 0.5 0.6z"/>
  <path d="m106.7 36.8c-0.2 0.1-0.4 0.1-0.6 0.2s-0.3 0.1-0.5 0.2c-0.1 0.1-0.3 0.1-0.4 0.2-0.2 0.1-0.3 0.2-0.5 0.3-0.1 0.1-0.2 0.1-0.2 0.2l-0.6 0.6c-0.1 0.1-0.2 0.2-0.2 0.3-0.1 0.2-0.3 0.4-0.4 0.6 0 0.1-0.1 0.1-0.1 0.2s-0.1 0.1-0.1 0.2-0.1 0.2-0.1 0.3c-0.1 0.3-0.2 0.5-0.2 0.8v0.2c-0.1 0.3-0.1 0.6-0.1 0.9s0 0.6 0.1 0.9v0.2c0.1 0.3 0.1 0.5 0.3 0.8 0 0.1 0.1 0.2 0.1 0.2 0 0.1 0.1 0.1 0.1 0.2 0.1 0.2 0.2 0.5 0.4 0.7 0 0.1 0.1 0.1 0.2 0.2 0.2 0.2 0.3 0.4 0.5 0.6l0.2 0.2c0.2 0.2 0.4 0.3 0.6 0.4 0.1 0.1 0.2 0.1 0.3 0.2l0.6 0.3c0.1 0.1 0.3 0.1 0.5 0.1 0.2 0.1 0.3 0.1 0.5 0.2 0.3 0.1 0.7 0.1 1 0.1h0.1 0.2 0.1c0.3 0 0.7 0 1-0.1 0.2 0 0.4-0.1 0.5-0.2 0.2 0 0.3-0.1 0.5-0.1l0.6-0.3c0.1-0.1 0.2-0.1 0.3-0.2 0.2-0.1 0.4-0.3 0.6-0.4l0.2-0.2c0.2-0.2 0.4-0.4 0.5-0.6l0.2-0.2c0.2-0.2 0.3-0.5 0.4-0.7 0-0.1 0.1-0.1 0.1-0.2s0.1-0.2 0.1-0.2c0.1-0.3 0.2-0.5 0.3-0.8v-0.2c0.1-0.3 0.1-0.6 0.1-0.9s0-0.6-0.1-0.9v-0.2c-0.1-0.3-0.1-0.5-0.2-0.8 0-0.1-0.1-0.2-0.1-0.3s0-0.1-0.1-0.2c0-0.1-0.1-0.1-0.1-0.2-0.1-0.2-0.2-0.4-0.4-0.6-0.1-0.1-0.2-0.2-0.2-0.3-0.1-0.2-0.3-0.3-0.5-0.5l-0.1-0.1c-0.1-0.1-0.2-0.1-0.2-0.2-0.1-0.1-0.3-0.2-0.5-0.3-0.1-0.1-0.3-0.2-0.4-0.2-0.2-0.1-0.3-0.2-0.5-0.2-0.2-0.1-0.4-0.1-0.6-0.2-0.1 0-0.3-0.1-0.4-0.1-0.3-0.1-0.7-0.1-1-0.1h-0.2c-0.4 0-0.7 0-1 0.1-0.3 0-0.5 0.1-0.6 0.1zm1.4 1.5h0.2c0.8 0 1.5 0.3 2.1 0.7s1 1 1.3 1.6c0.2 0.4 0.3 0.9 0.3 1.4 0 0.4-0.1 0.8-0.2 1.1-0.2 0.7-0.6 1.3-1.2 1.7-0.6 0.5-1.4 0.8-2.3 0.8h-0.2c-0.9 0-1.7-0.3-2.3-0.8-0.5-0.4-1-1-1.2-1.7-0.1-0.4-0.2-0.7-0.2-1.1 0-0.5 0.1-0.9 0.3-1.4 0.3-0.7 0.7-1.2 1.3-1.6s1.3-0.7 2.1-0.7z"/>
  <path d="m182.8 146.4v-17.3l-20.3-15.5c-0.2-0.1-0.4-0.2-0.6-0.2s-0.4 0-0.6 0.2l-18.3 14v2.3l18.9-14.4 19.1 14.5v16.4z"/>
  <path d="m142.3 54.6-9.1-7c-0.4-0.3-0.9-0.3-1.3 0l-9.2 7v2.6l9.8-7.5 9.8 7.5z"/>
  <path d="m8.8 129.3c-0.2-0.2-0.4-0.4-0.7-0.5s-0.60001-0.1-0.90001 0-0.5 0.2-0.8 0.4c-0.2 0.2-0.4 0.4-0.5 0.7s-0.1 0.6 0 0.8c0.1 0.3 0.20001 0.5 0.40001 0.8 0.2 0.2 0.4 0.4 0.7 0.5s0.59999 0.1 0.89999 0 0.5-0.2 0.8-0.4c0.2-0.2 0.4-0.4 0.5-0.7s0.1-0.6 0-0.9c0-0.3-0.19999-0.5-0.39999-0.7z"/>
  <path d="m7.8 118.2c0.4-0.3 0.8-0.7 1-1.2s0.30001-1.1 0.30001-1.7-0.2-1.2-0.5-1.7-0.70001-0.8-1.1-1.1c-0.5-0.2-1-0.3-1.6-0.3l-5.7 0.4c-0.1 0-0.2 0.1-0.2 0.2l0.10001 1.4c0 0.1 0.099997 0.2 0.2 0.2l5.7-0.4c0.4 0 0.80001 0.1 1.1 0.3 0.3 0.3 0.5 0.6 0.5 1s-0.10001 0.8-0.30001 1.1c-0.3 0.3-0.6 0.5-1.1 0.5l-5.7 0.4c-0.1 0-0.2 0.1-0.2 0.2l0.099991 1.4c0 0.1 0.10001 0.2 0.20001 0.2l5.7-0.4c0.6 0 1.1-0.2 1.5-0.5z"/>
  <path d="m8.5 107.6c0.1 0 0.2-0.1 0.2-0.2l0.1-1.3c0-0.1-0.09999-0.2-0.19999-0.2l-5.2-0.2h-0.09999v-0.1l5.4-3c0.1-0.1 0.19999-0.1 0.19999-0.2l0.10001-1.3c0-0.1-0.1-0.2-0.2-0.2l-8.4-0.4c-0.1 0-0.2 0.1-0.2 0.2l-0.099991 1.3c0 0.1 0.099997 0.2 0.2 0.2l5.2 0.2h0.10001v0.1l-5.4 2.9c-0.1 0.1-0.099991 0.1-0.099991 0.2l-0.10001 1.3c0 0.1 0.099997 0.2 0.2 0.2z"/>
  <path d="m9.5 94.5-8.4-1.1c-0.1 0-0.20001 0-0.20001 0.2l-0.2 1.3c0 0.1-3e-6 0.2 0.2 0.2l8.3 1.1c0.1 0 0.2 0 0.2-0.2l0.20001-1.3c0.1-0.1-1e-5 -0.2-0.10001-0.2z"/>
  <path d="m1.8 88.6 8.9-0.7c0.1 0 0.2-0.1 0.2-0.2l0.3-1.4c0-0.1 0-0.2-0.1-0.3l-7.7-4.4h-0.19999c-0.1 0-0.09999 0.1-0.09999 0.1l-0.30001 1.4c0 0.1-1e-5 0.2 0.09999 0.3l5.6 2.9v0.1h-0.10001l-6.3 0.3c-0.1 0-0.20002 0.1-0.20002 0.2l-0.29998 1.4c0 0.2 0.09999 0.3 0.19999 0.3z"/>
  <path d="m12.7 79.6c0.1 0 0.2 0 0.3-0.1l1.8-5.4c0-0.1 0-0.2-0.1-0.3l-1-0.3c-0.1 0-0.2 0-0.3 0.1l-1.3 3.9s0 0.1-0.1 0l-1.9-0.6s-0.1 0 0-0.1l0.8-2.5c0-0.1 0-0.2-0.1-0.3l-0.99997-0.3c-0.1 0-0.2 0-0.3 0.1l-0.8 2.5s1e-5 0.1-0.09999 0l-1.8-0.6s-0.1 0 0-0.1l1.3-3.9c0-0.1-1e-5 -0.2-0.10001-0.3l-1-0.3c-0.1 0-0.2 0-0.3 0.1l-1.8 5.4c0 0.1 1e-5 0.2 0.10001 0.3z"/>
  <path d="m16.2 69.8c0.1 0.1 0.2 0 0.3-0.1l0.6001-1.2c0.1-0.1-1e-4 -0.2-0.1001-0.3l-3.1-1.4s-0.1-0.1 0-0.1l0.5-1s0-0.1 0.1-0.1h3.8c0.1 0 0.2001-0.1 0.3001-0.2l0.5999-1.3v-0.1s1e-4 -0.1-0.0999-0.1h-0.1001l-3.8999 0.1h-0.1001v-0.1c0.1-0.5 0-1-0.3-1.4s-0.6-0.8-1.2-1c-0.5-0.2-0.8999-0.3-1.3999-0.3s-0.9001 0.2-1.3001 0.5-0.7 0.7-0.89996 1.2l-1.5 3.2c-0.1 0.1 1e-5 0.2 0.10001 0.3zm-5-6.1c0.1-0.3 0.4-0.5 0.7-0.7 0.3-0.1 0.6-0.1 0.9 0s0.5 0.4 0.6 0.6c0.1 0.3 0.1 0.6-0.1 0.9l-0.6999 1.5s-0.1001 0.1-0.1001 0l-1.8999-0.9s-0.1-0.1 0-0.1z"/>
  <path d="m15.4 57.2c0.4 0.3 0.9 0.4 1.3 0.3s0.8-0.2 1.2-0.4 0.8001-0.5 1.2001-0.9c0.4-0.3 0.6999-0.6 0.8999-0.7s0.4001-0.2 0.6001-0.3c0.2 0 0.4 0 0.5 0.1 0.2 0.1 0.3999 0.4 0.3999 0.6 0.1 0.3 0 0.6-0.3 1s-0.6 0.7-0.9 0.9c-0.4 0.1-0.7 0.1-1 0l-0.1999-0.1c-0.1-0.1-0.2001 0-0.3001 0.1l-0.6999 1.1c-0.1 0.1-1e-4 0.2 0.0999 0.3l0.2 0.1c0.5 0.3 0.9 0.4 1.4 0.4s0.9-0.2 1.4-0.5c0.4-0.3 0.8-0.8 1.2-1.3 0.3-0.6 0.5-1.1 0.6-1.6s0-1-0.2-1.4-0.5-0.8-1-1c-0.5-0.3-0.9-0.4-1.3-0.3s-0.8 0.2-1.1 0.4-0.7 0.5-1.2 0.9c-0.4 0.4-0.8 0.6-1 0.8s-0.3999 0.3-0.5999 0.3-0.4001 0-0.6001-0.1c-0.3-0.2-0.3999-0.4-0.3999-0.6 0-0.3 0.0999-0.6 0.2999-0.9 0.3-0.4 0.6-0.7 0.9-0.8 0.4-0.1 0.7-0.1 1 0.1l0.1 0.1c0.1 0 0.1001 0 0.2001-0.1l0.6999-1.1c0.1-0.1 0-0.2-0.1-0.3l-0.0999-0.1c-0.5-0.3-0.9001-0.4-1.4001-0.4s-1 0.2-1.4 0.5c-0.5 0.3-0.7999 0.8-1.1999 1.3-0.3 0.5-0.5001 1-0.6001 1.5s0 1 0.2 1.4c0.5 0.1 0.8 0.4 1.2 0.7z"/>
  <path d="m26.5 51.3c0.1 0.1 0.2 0.1 0.3-0.1l0.8-1.1c0.1-0.1 0.1-0.2 0-0.3l-6.9-4.9c-0.1-0.1-0.2-0.1-0.3 0l-0.8 1.1c-0.1 0.1-0.1 0.2 0.1 0.3z"/>
  <path d="m24.4 41.8c0.1 0.1 0.2 0.1 0.3 0l1.4-1.6h0.1l5.4 4.5c0.1 0.1 0.2 0.1 0.3 0l0.9-1c0.1-0.1 0.1-0.2 0-0.3l-5.4-4.5v-0.1l1.4-1.7c0.1-0.1 0.1-0.2 0-0.3l-0.8-0.7c-0.1-0.1-0.2-0.1-0.3 0l-4 4.8c-0.1 0.1-0.1 0.2 0 0.3z"/>
  <path d="m36.3 39.3c0 0.1 0.1 0.1 0.1 0.1 0.1 0 0.1001 0 0.2001-0.1l1.0999-1c0.1-0.1 0.1-0.2 0.1-0.3l-0.6-1.1v-0.1l2.2-2.1h0.1l1.1001 0.6c0.1 0.1 0.1999 0 0.2999 0l1.1-1 0.1001-0.1v-0.1h-0.1001l-8-4.4c-0.1-0.1-0.2 0-0.3 0l-1.3 1.3c-0.1 0.1-0.1 0.2-0.1 0.3zm-1.8-7.4 3.6001 2s0.1 0.1 0 0.1l-1.6001 1.6h-0.1z"/>
  <path d="m41.7 27.6c0.4 0.1 0.9 0.1 1.3 0s0.9-0.2 1.5-0.4c0.5-0.2 0.9-0.3 1.1-0.3 0.2-0.1 0.5-0.1 0.7 0 0.2 0 0.4 0.1 0.5 0.3 0.2 0.2 0.2 0.5 0.2 0.8-0.1 0.3-0.3 0.6-0.6 0.8-0.4 0.3-0.8 0.5-1.2 0.5s-0.7-0.1-0.9-0.4l-0.1-0.1c-0.1-0.1-0.2-0.1-0.3 0l-1 0.8c-0.1 0.1-0.1 0.2 0 0.3l0.1 0.2c0.3 0.4 0.7 0.7 1.2 0.8s0.9 0.2 1.5 0c0.5-0.1 1.1-0.4 1.6-0.8s0.9-0.8 1.2-1.3 0.4-0.9 0.3-1.4c0-0.5-0.2-0.9-0.5-1.3s-0.7-0.7-1.1-0.8-0.8-0.1-1.2 0-0.9 0.2-1.5 0.4c-0.5 0.2-0.9 0.3-1.2 0.4s-0.5 0.1-0.7 0c-0.2 0-0.3-0.1-0.5-0.3s-0.2-0.5-0.2-0.7c0.1-0.3 0.3-0.5 0.6-0.8 0.4-0.3 0.8-0.5 1.2-0.4 0.4 0 0.7 0.2 0.9 0.4l0.1 0.1c0.1 0.1 0.1 0.1 0.2 0l1-0.8c0.1-0.1 0.1-0.2 0-0.3l-0.1-0.1c-0.3-0.4-0.7-0.7-1.2-0.9-0.5-0.1-1-0.2-1.5 0-0.5 0.1-1.1 0.4-1.6 0.8s-0.8 0.8-1.1 1.2c-0.2 0.4-0.4 0.9-0.3 1.4 0 0.5 0.2 0.9 0.5 1.3 0.3 0.3 0.6 0.5 1.1 0.6z"/>
  <path d="m60.6 15.2c0.4 0.2 0.8 0.3 1.2 0.3s1 0 1.6-0.1c0.5-0.1 0.9-0.1 1.2-0.1s0.5 0 0.6 0.1 0.3 0.2 0.4 0.4 0.1 0.5 0 0.8-0.4 0.5-0.8 0.7-0.9 0.3-1.2 0.2c-0.4-0.1-0.6-0.3-0.8-0.6l-0.1-0.2c0-0.1-0.1-0.1-0.3-0.1l-1.2 0.6c-0.1 0.1-0.2 0.2-0.1 0.3l0.1 0.2c0.2 0.5 0.6 0.8 1 1.1 0.4 0.2 0.9 0.4 1.4 0.3 0.5 0 1.1-0.2 1.7-0.5s1.1-0.6 1.4-1 0.6-0.8 0.6-1.3c0.1-0.5 0-0.9-0.2-1.4s-0.5-0.8-0.9-1-0.8-0.3-1.2-0.3-0.9 0-1.5 0.1-1 0.1-1.3 0.1-0.5 0-0.7-0.1-0.3-0.2-0.4-0.4c-0.1-0.3-0.1-0.5 0-0.8 0.1-0.2 0.4-0.5 0.7-0.6 0.5-0.2 0.9-0.3 1.2-0.2 0.4 0.1 0.6 0.3 0.8 0.6l0.1 0.1c0 0.1 0.1 0.1 0.2 0l1.2-0.6c0.1-0.1 0.2-0.2 0.1-0.3l-0.1-0.1c-0.2-0.5-0.6-0.9-1-1.1s-0.9-0.4-1.5-0.4-1.1 0.2-1.7 0.4c-0.5 0.3-1 0.6-1.3 1s-0.5 0.8-0.6 1.3 0 0.9 0.2 1.4c0.5 0.7 0.8 1 1.2 1.2z"/>
  <path d="m69.2 8.7001c0 0.1 0.1 0.20001 0.3 0.10001l2-0.70001h0.1l2.4 6.6c0 0.1 0.1 0.2 0.3 0.1l1.3-0.5c0.1 0 0.2-0.1 0.1-0.3l-2.4-6.6v-0.09999l2.1-0.70001c0.1 0 0.2-0.09999 0.1-0.29999l-0.4-1c0-0.1-0.1-0.20001-0.3-0.10001l-5.9 2.1c-0.1 0-0.2 0.09999-0.1 0.29999z"/>
  <path d="m81.9 11c0.4 0.4 0.8 0.6 1.4 0.8 0.5 0.1 1.1 0.1 1.8 0 0.6-0.2 1.2-0.4 1.6-0.8s0.7-0.8 0.9-1.3c0.2-0.5 0.2-1.1 0-1.6l-1.3-5.5c0-0.1-0.1-0.2-0.3-0.2l-1.3 0.30001c-0.1 0-0.2 0.1-0.2 0.3l1.3 5.6c0.1 0.4 0.1 0.80001-0.1 1.1s-0.5 0.49999-1 0.69999c-0.4 0.1-0.8 0.1-1.1-0.1s-0.5-0.49999-0.6-0.99999l-1.3-5.6c0-0.1-0.1-0.2-0.3-0.2l-1.3 0.3c-0.1 0-0.2 0.09999-0.2 0.29999l1.3 5.5c0.1 0.6 0.4 1 0.7 1.4z"/>
  <path d="m92.7 10.1 3.1-0.40003c0.6-0.1 1.2-0.3 1.6-0.5 0.4-0.3 0.8-0.60001 1-1.1 0.2-0.4 0.3-0.89999 0.2-1.4l-0.4-3.5c-0.1-0.5-0.3-1-0.6-1.3-0.3-0.4-0.7-0.6-1.2-0.8-0.5-0.2-1.1-0.19999-1.7-0.099989l-3.1 0.39999c-0.1 0-0.2 0.1-0.2 0.2l1 8.4c0.1 0.10003 0.2 0.10003 0.3 0.10003zm0.8-7.5 1.5-0.2c0.4 0 0.7 1e-5 1 0.30001 0.3 0.2 0.4 0.6 0.5 1l0.4 2.9c0 0.4 0 0.80001-0.2 1.1s-0.5 0.5-0.9 0.5l-1.5 0.19999c-0.1 0-0.1 1e-5 -0.1-0.09999l-0.7-5.7c-0.1 0-0.1 0.1 0 0z"/>
  <path d="m103.5 9.1002 1.4-0.09999c0.1 0 0.2-0.1 0.2-0.2l-0.3-8.4c0-0.1-0.1-0.2-0.2-0.2l-1.4 0.10001c-0.1 0-0.2 0.099997-0.2 0.2l0.3 8.4c0 0.1 0.1 0.2 0.2 0.2z"/>
  <path d="m111 8.7c0.5 0.3 1.1 0.5 1.7 0.5 0.7 0 1.3-0.10001 1.8-0.30001s0.9-0.59999 1.2-1.1 0.5-1 0.5-1.7l0.1-2.7c0-0.6-0.1-1.2-0.3-1.7-0.3-0.5-0.6-0.9-1.1-1.2s-1.1-0.4-1.7-0.5c-0.7 0-1.2 0.1-1.8 0.3-0.5 0.2-0.9 0.59999-1.2 1.1-0.3 0.5-0.5 1-0.5 1.6l-0.1 2.7c0 0.6 0.1 1.2 0.3 1.7 0.3 0.6 0.6 1 1.1 1.3zm0.5-5.5c0-0.5 0.2-0.9 0.5-1.2s0.7-0.40001 1.1-0.40001c0.5 0 0.8 0.2 1.1 0.5s0.4 0.70001 0.4 1.2l-0.1 2.8c0 0.5-0.2 0.90001-0.5 1.2s-0.7 0.4-1.1 0.4c-0.5 0-0.8-0.2-1.1-0.5s-0.4-0.7-0.4-1.2z"/>
  <path d="m120.6 9.7 1.3 0.19999c0.1 0 0.2 1e-5 0.2-0.19999l0.5-3.3c0-0.1 0-0.09999 0.1-0.09999l1.1 0.2s0.1-1e-5 0.1 0.09999l1 3.6c0 0.1 0.1 0.2 0.2 0.2l1.4 0.2h0.1l0.1-0.1v-0.1l-1.1-3.7v-0.10001h0.1c0.5-0.1 1-0.3 1.3-0.7s0.6-0.79999 0.7-1.4c0.1-0.5 0-1-0.1-1.4-0.2-0.4-0.4-0.79999-0.8-1.1s-0.8-0.5-1.4-0.5l-3.5-0.5c-0.1 0-0.2-3e-6 -0.2 0.2l-1.3 8.3c0 0.1 0 0.2 0.2 0.2zm2.6-6.9c0.1-0.1 0.1-0.1 0 0l1.7 0.2c0.4 0.1 0.6 0.19999 0.8 0.39999s0.3 0.50001 0.2 0.90001c-0.1 0.3-0.2 0.59999-0.5 0.79999s-0.6 0.20001-0.9 0.20001l-1.6-0.3c-0.1 0-0.1-1e-5 -0.1-0.10001z"/>
  <path d="m132.4 11.7c0.4 0.4 0.9 0.6 1.6 0.8 0.6 0.2 1.2 0.2 1.8 0.1 0.5-0.1 1-0.4 1.4-0.7 0.4-0.4 0.7-0.8 0.8-1.4l1.5-5.5c0-0.1 0-0.2-0.2-0.3l-1.3-0.4c-0.1 0-0.2 0-0.3 0.2l-1.5 5.5c-0.1 0.39999-0.3 0.69999-0.7 0.89999-0.3 0.2-0.7 0.2-1.2 0.1-0.4-0.1-0.7-0.3-0.9-0.7-0.2-0.29999-0.2-0.7-0.1-1.2l1.5-5.5c0-0.1 0-0.19999-0.2-0.29999l-1.3-0.40001c-0.1 0-0.2 0-0.3 0.2l-1.5 5.5c-0.2 0.6-0.2 1.1 0 1.6 0.2 0.6 0.5 1.1 0.9 1.5z"/>
  <path d="m142.8 15.2c0.1 0.1 0.2 0 0.3-0.1l2-5.1h0.1c0.1 0 0 0 0 0.1l0.4 2.4c0 0.1 0.1 0.2 0.2 0.2l0.6 0.2h0.3l2-1.5h0.1v0.1l-2 5.1c-0.1 0.1 0 0.2 0.1 0.3l1.3 0.5c0.1 0.1 0.2 0 0.3-0.1l3.1-7.8c0.1-0.1 0-0.2-0.1-0.3l-1.3-0.5h-0.3l-2.8 2.1h-0.1v-0.1l-0.6-3.4c0-0.1-0.1-0.20002-0.2-0.20002l-1.3-0.5c-0.1-0.1-0.2 1e-5 -0.3 0.10001l-3.1 7.8c-0.1 0.1 0 0.2 0.1 0.3z"/>
  <path d="m164.8 26.7c0.7 0.5 1.5 0.8 2.2 0.7 0.7 0 1.3-0.4 1.7-1 0.6-0.8 0.6-1.6 0.2-2.4v-0.1h0.1c0.8 0.1 1.4-0.2 1.9-0.9 0.9-1.3 0.6-2.6-1.1-3.7l-2.6-1.8c-0.1-0.1-0.2-0.1-0.3 0.1l-4.8 6.9c-0.1 0.1-0.1 0.2 0.1 0.3zm2.8-6.9h0.1l1.2 0.8c0.3 0.2 0.5 0.5 0.6 0.8s0 0.6-0.2 0.8c-0.2 0.3-0.4 0.4-0.7 0.4s-0.6-0.1-0.9-0.3l-1.2-0.8v-0.1zm-2 2.9h0.1l1.3 0.9c0.3 0.2 0.5 0.5 0.6 0.8s0 0.6-0.2 0.9-0.4 0.4-0.7 0.5c-0.3 0-0.6-0.1-0.9-0.3l-1.3-0.9v-0.1z"/>
  <path d="m170.9 31.2 4.3 3.7c0.1 0.1 0.2 0.1 0.3 0l0.7-0.8c0.1-0.1 0.1-0.2 0-0.3l-3.1-2.7v-0.1l1.3-1.5h0.1l2 1.7c0.1 0.1 0.2 0.1 0.3 0l0.7-0.8c0.1-0.1 0.1-0.2 0-0.3l-2-1.7v-0.1l1.3-1.5h0.1l3.1 2.7c0.1 0.1 0.2 0.1 0.3 0l0.7-0.8c0.1-0.1 0.1-0.2 0-0.3l-4.3-3.7c-0.1-0.1-0.2-0.1-0.3 0l-5.5 6.4c-0.1-0.1-0.1 0 0 0.1z"/>
  <path d="m178.6 38.2 0.9 1c0.1 0.1 0.2 0.1 0.3 0l2.5-2.3h0.1l0.8 0.8v0.1l-1.4 3.5c0 0.1 0 0.2 0.1 0.3l1.1 1.1h0.1l0.1-0.1 1.4-3.6h0.1c0.5 0.3 1 0.3 1.5 0.3 0.5-0.1 1-0.3 1.4-0.7s0.6-0.8 0.8-1.2c0.1-0.4 0.2-0.9 0-1.3-0.1-0.5-0.4-0.9-0.7-1.3l-2.4-2.6c-0.1-0.1-0.2-0.1-0.3 0l-6.1 5.8c-0.4-0.1-0.4 0-0.3 0.2zm4.8-2.4 1.5-1.5h0.1l1.1 1.2c0.2 0.3 0.4 0.5 0.4 0.9 0 0.3-0.1 0.6-0.4 0.8-0.2 0.2-0.5 0.3-0.8 0.3s-0.6-0.2-0.8-0.4l-1.1-1.2c-0.1 0-0.1-0.1 0-0.1z"/>
  <path d="m186.8 45.3c-0.2 0.5-0.3 1-0.2 1.6s0.3 1.1 0.7 1.6 0.8 0.9 1.3 1.1 1 0.3 1.6 0.3c0.5-0.1 1.1-0.3 1.6-0.7l1.3-1c0.1-0.1 0.1-0.2 0-0.3l-1.8-2.4c-0.1-0.1-0.2-0.1-0.3 0l-0.8 0.6c-0.1 0.1-0.1 0.2 0 0.3l0.8 1.1v0.1l-0.4 0.3c-0.3 0.2-0.7 0.3-1 0.3-0.3-0.1-0.6-0.3-0.9-0.6-0.3-0.4-0.4-0.7-0.3-1.2 0-0.4 0.3-0.7 0.6-1l2.3-1.8c0.4-0.3 0.7-0.4 1.1-0.3 0.4 0 0.7 0.3 1 0.6 0.3 0.4 0.4 0.7 0.3 1.1 0 0.4-0.2 0.7-0.5 0.9l-0.1 0.1v0.1s0 0.1 0.1 0.1l0.8 1.1c0.1 0.1 0.2 0.1 0.3 0 0.4-0.3 0.7-0.7 0.9-1.2s0.2-1 0.1-1.5-0.3-1.1-0.7-1.6-0.8-0.9-1.3-1.1-1-0.3-1.6-0.3c-0.5 0.1-1.1 0.3-1.5 0.7l-2.3 1.7c-0.5 0.4-0.9 0.8-1.1 1.3z"/>
  <path d="m193.1 54c-0.3 0.5-0.4 1-0.4 1.6s0.2 1.1 0.5 1.7 0.8 1 1.2 1.3c0.5 0.3 1 0.4 1.6 0.4s1.1-0.2 1.7-0.5l2.3-1.4c0.5-0.3 0.9-0.7 1.2-1.2s0.4-1 0.4-1.6-0.2-1.1-0.6-1.7c-0.3-0.6-0.8-1-1.2-1.3-0.5-0.3-1-0.4-1.6-0.4s-1.1 0.2-1.6 0.5l-2.3 1.4c-0.5 0.3-0.9 0.8-1.2 1.2zm1.3 1.3c0.1-0.4 0.4-0.7 0.8-1l2.4-1.4c0.4-0.3 0.8-0.3 1.2-0.2s0.7 0.3 1 0.7c0.2 0.4 0.3 0.8 0.2 1.2s-0.4 0.7-0.8 1l-2.4 1.4c-0.4 0.3-0.8 0.3-1.2 0.2s-0.7-0.3-1-0.7c-0.2-0.4-0.3-0.8-0.2-1.2z"/>
  <path d="m197.3 64.1 0.6 1.2c0.1 0.1 0.2 0.2 0.3 0.1l5-2.3h0.1v0.1l-1.4 2c-0.1 0.1-0.1 0.2 0 0.3l0.3 0.6c0 0.1 0.1 0.2 0.2 0.2l2.4 0.3h0.1v0.1l-5 2.3c-0.1 0.1-0.2 0.2-0.1 0.3l0.6 1.2c0.1 0.1 0.2 0.2 0.3 0.1l7.7-3.5c0.1-0.1 0.2-0.2 0.1-0.3l-0.6-1.2c0-0.1-0.1-0.2-0.2-0.2l-3.5-0.5h-0.1v-0.1l1.9-2.9c0.1-0.1 0.1-0.2 0-0.3l-0.6-1.2c-0.1-0.1-0.2-0.2-0.3-0.1l-7.7 3.5c-0.1 0.1-0.2 0.2-0.1 0.3z"/>
  <path d="m201.9 75 1.8 5.4c0 0.1 0.1 0.2 0.3 0.1l1-0.3c0.1 0 0.2-0.1 0.1-0.3l-1.3-3.9v-0.1l1.9-0.6h0.1l0.8 2.5c0 0.1 0.1 0.2 0.3 0.1l1-0.3c0.1 0 0.2-0.1 0.1-0.3l-0.8-2.5v-0.1l1.8-0.6h0.1l1.3 3.9c0 0.1 0.1 0.2 0.3 0.1l1-0.3c0.1 0 0.2-0.1 0.1-0.3l-1.8-5.4c0-0.1-0.1-0.2-0.3-0.1l-8 2.6c0.2 0.2 0.2 0.3 0.2 0.4z"/>
  <path d="m204.8 84.9 0.3 1.3c0 0.1 0.1 0.2 0.3 0.2l5.1-1.1h0.1v0.1l-4.6 4.2c-0.1 0.1-0.1 0.2-0.1 0.3l0.3 1.3c0 0.1 0.1 0.2 0.3 0.2l8.2-1.7c0.1 0 0.2-0.1 0.2-0.3l-0.3-1.3c0-0.1-0.1-0.2-0.3-0.2l-5.1 1.1h-0.1v-0.1l4.5-4.2c0.1-0.1 0.1-0.2 0.1-0.3l-0.3-1.3c0-0.1-0.1-0.2-0.3-0.2l-8.1 1.8c-0.1 0-0.2 0.1-0.2 0.2z"/>
  <path d="m208.5 101.5c0.4 0.2 0.9 0.3 1.4 0.3 0.5-0.1 0.9-0.2 1.3-0.5 0.3-0.3 0.5-0.6 0.7-1 0.1-0.4 0.3-0.8 0.4-1.4s0.2-1 0.3-1.2c0.1-0.3 0.2-0.5 0.3-0.6s0.3-0.2 0.5-0.2c0.3 0 0.5 0.1 0.7 0.3s0.3 0.5 0.3 0.9c0 0.5 0 0.9-0.3 1.2-0.2 0.3-0.5 0.5-0.9 0.5h-0.1c-0.1 0-0.1 0.1-0.1 0.2l0.1 1.3c0 0.1 0.1 0.2 0.2 0.2h0.1c0.5-0.1 1-0.2 1.4-0.6 0.4-0.3 0.7-0.7 0.8-1.3 0.2-0.5 0.2-1.1 0.2-1.7-0.1-0.6-0.2-1.1-0.5-1.6-0.2-0.4-0.6-0.8-1-1s-0.9-0.3-1.4-0.3-0.9 0.2-1.2 0.5-0.6 0.7-0.7 1.1c-0.2 0.4-0.3 0.9-0.5 1.5-0.1 0.5-0.2 0.9-0.3 1.1l-0.3 0.6c-0.1 0.1-0.3 0.2-0.5 0.2-0.3 0-0.5-0.1-0.7-0.3s-0.3-0.5-0.4-1c0-0.5 0-0.9 0.2-1.2s0.5-0.5 0.8-0.5h0.2c0.1 0 0.2-0.1 0.1-0.2l-0.1-1.3c0-0.1-0.1-0.2-0.2-0.2h-0.2c-0.5 0.1-1 0.2-1.3 0.5-0.4 0.3-0.6 0.7-0.8 1.2s-0.2 1.1-0.2 1.7c0.1 0.7 0.2 1.2 0.5 1.7 0.5 0.5 0.8 0.8 1.2 1.1z"/>
  <path d="m216.4 106.3c0-0.1-0.1-0.2-0.2-0.2l-8.4 0.1c-0.1 0-0.2 0.1-0.2 0.2v1.4c0 0.1 0.1 0.2 0.2 0.2l8.4-0.1c0.1 0 0.2-0.1 0.2-0.2z"/>
  <path d="m215.3 113.2c-0.4-0.3-0.8-0.4-1.3-0.5-0.5 0-1 0.1-1.3 0.3-0.4 0.2-0.7 0.6-0.9 0.9-0.2 0.4-0.5 0.8-0.7 1.4-0.2 0.5-0.4 0.8-0.5 1.1-0.1 0.2-0.3 0.4-0.4 0.5s-0.3 0.2-0.5 0.2c-0.3 0-0.5-0.1-0.7-0.4-0.2-0.2-0.2-0.6-0.2-1 0-0.5 0.2-0.9 0.4-1.2 0.3-0.3 0.5-0.4 0.9-0.4h0.2c0.1 0 0.2-0.1 0.2-0.2l0.1-1.3c0-0.1-0.1-0.2-0.2-0.2h-0.2c-0.5 0-1 0.1-1.4 0.3s-0.7 0.6-1 1.1-0.4 1-0.5 1.7c0 0.7 0 1.2 0.2 1.7s0.4 0.9 0.8 1.2 0.8 0.5 1.3 0.5 1-0.1 1.3-0.3c0.4-0.2 0.6-0.5 0.8-0.9 0.2-0.3 0.4-0.8 0.7-1.4 0.2-0.5 0.4-0.9 0.5-1.2 0.1-0.2 0.3-0.4 0.4-0.5 0.2-0.1 0.3-0.2 0.5-0.2 0.3 0 0.5 0.1 0.7 0.4 0.2 0.2 0.2 0.5 0.2 0.9 0 0.5-0.2 0.9-0.5 1.2s-0.6 0.4-0.9 0.4h-0.1c-0.1 0-0.1 0.1-0.1 0.2l-0.1 1.3c0 0.1 0.1 0.2 0.2 0.2h0.1c0.5 0 1-0.1 1.4-0.3 0.4-0.3 0.8-0.6 1-1.1 0.3-0.5 0.4-1.1 0.5-1.7 0-0.6 0-1.1-0.2-1.6-0.1-0.4-0.4-0.8-0.7-1.1z"/>
  <path d="m209.8 129.2c-0.2-0.2-0.5-0.3-0.8-0.4s-0.6-0.1-0.9 0-0.5 0.2-0.7 0.5c-0.2 0.2-0.3 0.5-0.4 0.8s-0.1 0.6 0 0.8c0.1 0.3 0.2 0.5 0.5 0.7 0.2 0.2 0.5 0.3 0.8 0.4s0.6 0 0.8 0c0.3-0.1 0.5-0.2 0.7-0.5 0.2-0.2 0.3-0.5 0.4-0.8s0.1-0.6 0-0.8c0-0.3-0.2-0.5-0.4-0.7z"/>
 </g>
</svg>
